<?xml version="1.0" ?><!DOCTYPE svg  PUBLIC '-//W3C//DTD SVG 1.1//EN'  'http://www.w3.org/Graphics/SVG/1.1/DTD/svg11.dtd'><svg enable-background="new 0 0 512 512" height="512px" id="Layer_1" version="1.1" viewBox="0 0 512 512" width="512px" xml:space="preserve" xmlns="http://www.w3.org/2000/svg" xmlns:xlink="http://www.w3.org/1999/xlink"><path d="M492.879,442.732c0,34.171-27.701,61.872-61.873,61.872H81.263c-34.171,0-61.873-27.701-61.873-61.872  V92.987c0-34.171,27.702-61.873,61.873-61.873h349.743c34.172,0,61.873,27.701,61.873,61.873V442.732z" fill="#257016"/><path d="M492.879,417.988c0,34.172-27.701,61.873-61.873,61.873H81.263c-34.171,0-61.873-27.701-61.873-61.873  V68.243c0-34.171,27.702-61.872,61.873-61.872h349.743c34.172,0,61.873,27.701,61.873,61.872V417.988z" fill="#65BC54"/><path d="M492.879,417.988V307.965c-3.945-3.967-7.791-8.092-11.904-11.875c-1.981-2.176-4.207-4.133-6.242-6.258  c-2.035-2.127-4.163-4.175-6.247-6.254c-4.16-4.149-8.186-8.51-12.511-12.488c-1.981-2.176-4.207-4.133-6.242-6.258  c-2.035-2.127-4.163-4.175-6.247-6.254c-4.16-4.149-8.186-8.51-12.511-12.488c-1.981-2.176-4.207-4.133-6.242-6.259  c-2.035-2.126-4.163-4.174-6.247-6.253c-4.13-4.12-8.144-8.404-12.4-12.391c-0.918-0.86-1.939-1.61-3.039-2.223  c-1.147-0.64-2.742-0.89-3.655-1.79c-2.092-2.058-4.105-4.201-6.231-6.224c-4.049-4.274-8.332-8.353-12.499-12.512  c-8.342-8.326-16.659-16.674-25-25c-16.694-16.664-33.343-33.373-50.036-50.037c-2.958-2.954-7.246-5.936-11.627-5.902  c-1.903,0.015-3.827,0.737-5.562,1.458c-1.889,0.785-3.713,1.728-5.486,2.743c-0.869,0.498-1.733,1.01-2.571,1.56  c-0.063,0.04-0.005,0.592-0.005,0.662c0,1.652,0,3.303,0,4.954c0,11.684,0,23.367,0,35.05c0,1.168,0,2.335,0,3.503  c0,0.299-0.342,0.7-0.48,0.95c-1.495,2.714-3.021,5.412-4.564,8.1c-6.068,10.577-12.394,21.016-19.104,31.198  c-7.097,10.768-14.54,21.694-23.663,30.874c-2.956,2.973-6.298,6.126-10.262,7.692c-0.702,0.277-1.432,0.494-2.18,0.6  c-0.324,0.046-0.651,0.07-0.978,0.069c-1.013-1.077-2.111-2.072-3.134-3.139c-4.07-4.239-8.261-8.43-12.5-12.5  c-1.938-1.86-3.694-3.7-6.125-4.936c-2.355-1.198-4.981-1.828-7.624-1.828c-0.567-0.005-1.135,0-1.702,0c-3.883,0-7.766,0-11.648,0  c-12.631,0-25.262,0-37.893,0c-7.451,0-14.901,0-22.351,0c-9.042,0-16.049,7.62-15.227,16.639c0.14,1.531,0.327,3.059,0.492,4.588  c1.01,9.383,2.02,18.765,3.03,28.148c1.396,12.974,2.793,25.946,4.189,38.92c1.125,10.451,2.25,20.904,3.376,31.356  c0.255,2.372,0.51,4.742,0.766,7.113c0.202,1.876,0.6,3.706,1.33,5.454c1.016,2.432,2.55,4.638,4.437,6.473  c2.102,2.045,4.095,4.208,6.229,6.219c3.98,4.32,8.326,8.367,12.491,12.51c4.174,4.15,8.227,8.453,12.509,12.49  c3.98,4.32,8.326,8.367,12.491,12.51c4.174,4.15,8.227,8.453,12.509,12.49c3.98,4.32,8.326,8.367,12.491,12.51  c4.174,4.15,8.227,8.453,12.509,12.49c3.98,4.32,8.326,8.367,12.491,12.51c4.174,4.149,8.227,8.453,12.509,12.49  c3.314,3.598,6.878,7.009,10.384,10.439h195.836C465.178,479.861,492.879,452.16,492.879,417.988z" fill="#449234"/><g><path d="M411.402,234.87v-1.142c0-9.199-6.951-16.661-15.529-16.661H308.74c2.527-8.537,10.781-38.891,8.43-64.023   c-2.766-29.566-18.506-35.949-23.611-35.524c-5.104,0.426-13.186,5.743-13.186,5.743v44.244c0,0-44.672,82.164-62.113,79.34v99.122   h16.166l15.525,9.15h23.188h15.102h81.256c8.578,0,15.529-7.23,15.529-16.145v-1.107c0-8.918-6.951-16.145-15.529-16.145h11.488   c8.574,0,15.529-7.551,15.529-16.865v-1.156c0-9.313-6.955-16.861-15.529-16.861h11.275c8.574,0,15.525-7.643,15.525-17.074v-1.167   c0-9.429-6.951-17.07-15.525-17.07h3.613C404.451,251.528,411.402,244.069,411.402,234.87z" fill="#FFFFFF"/><path d="M189.758,224.512H116.16c-9.359,0-16.199,7.616-15.195,16.92l11.883,110.38   c1.004,9.305,9.479,16.92,18.838,16.92h58.072c9.359,0,17.014-7.658,17.014-17.018V241.53   C206.771,232.172,199.117,224.512,189.758,224.512z M176.145,351.074c-6.58,0-11.912-5.329-11.912-11.912   c0-6.576,5.332-11.912,11.912-11.912c6.576,0,11.912,5.336,11.912,11.912C188.057,345.745,182.721,351.074,176.145,351.074z" fill="#FFFFFF"/></g></svg>